<svg height="511pt" viewBox="-70 1 511 511.99895" width="511pt" xmlns="http://www.w3.org/2000/svg"><path d="m311.171875 335.925781h-250.71875c-12.992187 0-23.527344-10.53125-23.527344-23.527343v-163.511719c0-82.097657 66.789063-148.886719 148.886719-148.886719s148.886719 66.789062 148.886719 148.886719v163.511719c0 12.996093-10.53125 23.527343-23.527344 23.527343zm-227.191406-47.050781h203.667969v-139.988281c0-56.152344-45.683594-101.832031-101.835938-101.832031s-101.835938 45.679687-101.835938 101.832031v139.988281zm0 0" fill="#b3b3b3"/><path d="m56.007812 312.398438v-163.511719c0-78.890625 61.679688-143.636719 139.347657-148.574219-3.15625-.199219-6.335938-.3125-9.539063-.3125-82.097656 0-148.886718 66.789062-148.886718 148.886719v163.511719c0 12.996093 10.53125 23.527343 23.527343 23.527343h19.074219c-12.992188 0-23.523438-10.53125-23.523438-23.527343zm0 0" fill="#808080"/><path d="m204.894531 47.054688c-3.21875 0-6.398437.15625-9.539062.449218 51.695312 4.824219 92.296875 48.449219 92.296875 101.382813v139.988281h19.074218v-139.988281c0-56.152344-45.683593-101.832031-101.832031-101.832031zm0 0" fill="#808080"/><path d="m308.988281 217.015625h-246.347656c-34.320313 0-62.140625 27.824219-62.140625 62.144531v170.695313c0 34.320312 27.820312 62.144531 62.140625 62.144531h246.347656c34.320313 0 62.140625-27.824219 62.140625-62.144531v-170.695313c0-34.320312-27.820312-62.144531-62.140625-62.144531zm0 0" fill="#369ac1"/><path d="m62.640625 485.859375c-19.851563 0-36-16.152344-36-36v-170.699219c0-19.851562 16.148437-36 36-36h246.34375c19.851563 0 36.003906 16.148438 36.003906 36v170.699219c0 19.851563-16.152343 36-36.003906 36zm0 0" fill="#5eb3dd"/><path d="m185.8125 451.191406c-16.914062 0-30.671875-13.757812-30.671875-30.671875v-31.070312c-16.054687-10.667969-25.726563-29.195313-24.777344-48.972657 1.375-28.765624 25.011719-51.953124 53.808594-52.789062.550781-.015625 1.09375-.023438 1.640625-.023438 30.613281 0 55.519531 24.90625 55.519531 55.515626 0 18.949218-9.476562 36.152343-24.84375 46.289062v31.050781c0 16.914063-13.761719 30.671875-30.675781 30.671875zm0 0" fill="#369ac1"/><path d="m225.644531 343.179688c0-22.390626-18.476562-40.46875-41.015625-39.8125-20.625.597656-37.617187 17.25-38.601562 37.859374-.835938 17.527344 9.664062 32.707032 24.796875 38.859376v40.433593c0 8.277344 6.710937 14.988281 14.988281 14.988281 8.28125 0 14.992188-6.710937 14.992188-14.988281v-40.433593c14.566406-5.921876 24.839843-20.210938 24.839843-36.90625zm0 0" fill="#212c33"/></svg>